#!OML:ASF H:\Terrain\Patient Classification 1\Walking\steve\steve.ASF
:FULLY-SPECIFIED
:DEGREES
338
root 8.44746 16.313 34.488 5.27657 5.35649 3.42985
lowerback 0.10648 -0.610431 -4.48925
upperback -2.17755 -0.844973 1.60272
thorax -2.21464 -0.320282 4.19062
lowerneck -10.775 -1.37982 -5.06496
upperneck 12.2398 -1.24041 1.52024
head 5.50636 -0.730556 1.2054
rclavicle 3.55949e-015 5.56597e-015
rhumerus -74.8078 -28.4626 -42.8973
rradius 13.3033
rwrist 27.2561
rhand -12.7953 -38.2606
rfingers 7.12502
rthumb 13.2905 -67.8169
lclavicle 3.55949e-015 5.56597e-015
lhumerus -16.3591 -11.4617 90.0809
lradius 58.2726
lwrist 23.8046
lhand -33.3769 -15.761
lfingers 7.12502
lthumb -6.57803 14.1168
rfemur -42.5439 0.685256 19.3349
rtibia 34.2213
rfoot -4.75655 3.26529
rtoes -0.794192
lfemur 21.0773 -0.821897 -25.6926
ltibia 10.1347
lfoot 7.4623 -8.56703
ltoes 11.4054
339
root 8.4542 16.3002 34.7189 5.42561 5.2271 2.78781
lowerback 0.103254 -0.460391 -3.46822
upperback -2.32802 -0.627572 1.77411
thorax -2.39628 -0.222525 3.78849
lowerneck -10.9306 -1.46319 -5.08225
upperneck 12.3104 -1.31021 1.29971
head 5.55648 -0.781616 1.13254
rclavicle 1.04486e-014 4.77083e-015
rhumerus -74.6582 -28.5246 -43.0559
rradius 13.4206
rwrist 27.162
rhand -12.2949 -38.4949
rfingers 7.12502
rthumb 13.7728 -68.019
lclavicle 1.04486e-014 4.77083e-015
lhumerus -17.0974 -11.5907 90.3728
lradius 58.559
lwrist 24.3198
lhand -32.434 -15.8076
lfingers 7.12502
lthumb -5.66775 14.0966
rfemur -42.8462 1.4394 19.8353
rtibia 35.9927
rfoot -5.2729 2.62197
rtoes -1.07491
lfemur 18.6518 -0.8638 -24.8962
ltibia 15.2869
lfoot 8.92155 -7.00316
ltoes 17.3694
340
root 8.47441 16.2945 34.9533 5.36051 5.12451 2.56602
lowerback 0.213882 -0.417213 -2.8428
upperback -2.36918 -0.561203 1.86806
thorax -2.51006 -0.19826 3.53263
lowerneck -11.1016 -1.68745 -5.70483
upperneck 12.4631 -1.50797 1.37173
head 5.64668 -0.903504 1.23938
rclavicle 1.56046e-014 3.02153e-014
rhumerus -74.283 -28.5758 -43.1399
rradius 13.4823
rwrist 27.4841
rhand -12.2943 -38.8595
rfingers 7.12502
rthumb 13.7734 -68.3836
lclavicle 1.56046e-014 3.02153e-014
lhumerus -17.9028 -11.0792 90.5589
lradius 58.2422
lwrist 24.9528
lhand -29.9348 -19.0712
lfingers 7.12502
lthumb -3.2545 10.8837
rfemur -42.974 1.62089 20.0985
rtibia 37.9154
rfoot -5.93489 2.59525
rtoes -6.25547
lfemur 16.7417 -0.701191 -24.54
ltibia 19.8224
lfoot 10.346 -5.23776
ltoes 17.7286
341
root 8.4965 16.2861 35.2069 4.9266 4.72456 2.74418
lowerback 0.432544 -0.423871 -2.90584
upperback -2.192 -0.573834 1.98315
thorax -2.44801 -0.205942 3.68862
lowerneck -11.7704 -1.33707 -5.63852
upperneck 13.1839 -0.97884 1.23212
head 5.96741 -0.662036 1.22699
rclavicle -2.81405e-014 1.51076e-014
rhumerus -74.0368 -28.7745 -42.2566
rradius 12.8003
rwrist 31.138
rhand -15.0178 -40.2131
rfingers 7.12502
rthumb 11.1476 -69.8969
lclavicle -2.81405e-014 1.51076e-014
lhumerus -18.8021 -10.9292 90.9222
lradius 58.5876
lwrist 24.4515
lhand -34.0607 -19.5334
lfingers 7.12502
lthumb -7.23819 10.3228
rfemur -42.6334 1.52296 20.1519
rtibia 39.767
rfoot -6.13929 3.70827
rtoes -7.27799
lfemur 15.2864 -0.248526 -24.643
ltibia 24.431
lfoot 12.0702 -3.39512
ltoes 16.7688
342
root 8.49981 16.2757 35.4289 4.81405 4.62348 2.86429
lowerback 0.810738 -0.458048 -3.0647
upperback -2.27327 -0.629253 2.08446
thorax -2.73844 -0.221995 3.89036
lowerneck -11.4079 -1.00604 -5.31194
upperneck 12.7058 -0.532227 0.682826
head 5.73747 -0.46384 1.03763
rclavicle -5.34234e-016 -1.27222e-014
rhumerus -74.1258 -29.1414 -40.903
rradius 12.165
rwrist 34.5179
rhand -17.3269 -39.9502
rfingers 7.12502
rthumb 8.91988 -69.7416
lclavicle -5.34234e-016 -1.27222e-014
lhumerus -19.7214 -10.8455 91.2192
lradius 59.0414
lwrist 24.733
lhand -33.8465 -15.8565
lfingers 7.12502
lthumb -7.03135 14.0067
rfemur -42.6224 1.58745 20.1411
rtibia 41.4372
rfoot -6.09729 4.72025
rtoes -2.83866
lfemur 13.3297 -0.0859069 -24.5904
ltibia 28.8952
lfoot 14.7322 -1.66971
ltoes 17.8346
343
root 8.49971 16.2887 35.6044 5.71833 5.42505 2.6112
lowerback 0.799923 -0.730868 -2.67982
upperback -2.80771 -0.979149 2.23417
thorax -3.25679 -0.385187 3.84571
lowerneck -11.9992 -0.80885 -4.57074
upperneck 13.1663 -0.255835 0.000433545
head 5.97289 -0.352789 0.724041
rclavicle 2.61712e-014 -2.54444e-014
rhumerus -72.1588 -28.6287 -43.6119
rradius 13.2634
rwrist 28.5639
rhand -12.9973 -37.2788
rfingers 7.12502
rthumb 13.0958 -66.8476
lclavicle 2.61712e-014 -2.54444e-014
lhumerus -20.6904 -10.7649 91.4598
lradius 59.598
lwrist 25.0349
lhand -33.1643 -11.953
lfingers 7.12502
lthumb -6.37279 17.9311
rfemur -43.5076 1.34742 20.3416
rtibia 42.7867
rfoot -6.4692 4.73711
rtoes -0.842286
lfemur 9.92373 -0.940574 -24.0992
ltibia 33.2245
lfoot 16.0799 -1.20961
ltoes 12.2841
